<svg width="242" height="170" viewBox="0 0 242 170" fill="none" xmlns="http://www.w3.org/2000/svg">
<path d="M37.735 88.96C36.935 88.8533 35.2283 88.6667 32.615 88.4C30.055 88.1333 27.9217 88 26.215 88C24.5617 88 22.7483 88.1333 20.775 88.4C18.855 88.6667 17.6017 88.8533 17.015 88.96L17.495 85.28C19.9483 84.8 21.6017 84.1067 22.455 83.2C23.3083 82.24 23.735 80.64 23.735 78.4L23.815 44.8C23.815 43.0933 23.6017 41.9467 23.175 41.36C22.8017 40.7733 22.0283 40.48 20.855 40.48C20.3217 40.48 19.7883 40.5067 19.255 40.56C18.7217 40.6133 18.3483 40.64 18.135 40.64L17.975 40.32L18.535 36.8C19.1217 36.8533 20.2417 36.9067 21.895 36.96C23.5483 37.0133 25.2283 37.04 26.935 37.04C29.2283 37.04 31.6017 37.0133 34.055 36.96C36.5083 36.8533 38.1883 36.7733 39.095 36.72C44.215 36.72 48.775 37.7333 52.775 39.76C56.775 41.7333 59.8683 44.5333 62.055 48.16C64.295 51.7867 65.415 55.9467 65.415 60.64C65.415 65.8667 64.1883 70.64 61.735 74.96C59.2817 79.28 55.9483 82.6933 51.735 85.2C47.5217 87.7067 42.855 88.96 37.735 88.96ZM33.575 40.64C32.455 40.64 31.7083 40.7733 31.335 41.04C30.9617 41.2533 30.7483 41.7067 30.695 42.4C29.895 62.9333 29.495 74.64 29.495 77.52C29.495 79.5467 29.7617 81.0667 30.295 82.08C30.8817 83.0933 31.8683 83.8133 33.255 84.24C34.695 84.6667 36.8017 84.88 39.575 84.88C45.335 84.88 49.8683 82.9067 53.175 78.96C56.4817 74.96 58.135 69.4933 58.135 62.56C58.135 55.52 56.0017 50.1067 51.735 46.32C47.5217 42.5333 41.4683 40.64 33.575 40.64Z" fill="#00BBF7"/>
<path d="M74.4478 72.512C74.4478 76.096 75.3011 78.976 77.0078 81.152C78.7571 83.328 81.0611 84.416 83.9198 84.416C85.1144 84.416 86.2878 84.2667 87.4398 83.968C88.5918 83.6693 89.5518 83.3707 90.3198 83.072C91.0878 82.7307 91.5784 82.5173 91.7918 82.432L92.1758 82.56L92.8798 84.416C92.5811 84.6293 91.8771 85.0987 90.7678 85.824C89.7011 86.5067 88.4424 87.168 86.9918 87.808C85.5411 88.448 84.2398 88.768 83.0878 88.768C80.4424 88.768 78.0958 88.192 76.0478 87.04C73.9998 85.8453 72.4211 84.1813 71.3118 82.048C70.2024 79.872 69.6478 77.3973 69.6478 74.624C69.6478 71.7653 70.2878 69.0773 71.5677 66.56C72.8904 64.0427 74.6398 62.0373 76.8158 60.544C78.9918 59.0507 81.3171 58.304 83.7917 58.304C86.9064 58.304 89.2744 59.0933 90.8958 60.672C92.5171 62.2507 93.3278 64.5547 93.3278 67.584C93.3278 68.2667 93.2638 68.928 93.1358 69.568C93.0504 70.1653 92.9864 70.5493 92.9438 70.72L92.1118 71.488H74.4478V72.512ZM86.2878 68.544C86.9278 68.4587 87.3544 68.3093 87.5678 68.096C87.7811 67.8827 87.8878 67.456 87.8878 66.816C87.8878 65.1093 87.4184 63.808 86.4798 62.912C85.5838 62.016 84.2824 61.568 82.5758 61.568C80.5704 61.568 78.8424 62.2507 77.3918 63.616C75.9838 64.9813 75.0878 66.816 74.7038 69.12L86.2878 68.544ZM98.0153 86.144C99.2099 85.8027 100.042 85.376 100.511 84.864C101.023 84.352 101.322 83.7333 101.407 83.008C101.535 82.2827 101.599 81.0667 101.599 79.36V47.936C101.599 45.632 100.81 44.48 99.2313 44.48C98.9326 44.48 98.6126 44.5227 98.2713 44.608C97.9299 44.6507 97.7166 44.6933 97.6313 44.736C97.6313 44.48 97.6739 44.096 97.7593 43.584L97.8873 42.368C99.7219 42.112 101.621 41.7707 103.583 41.344C105.546 40.9173 106.805 40.64 107.359 40.512L107.743 41.344C107.274 42.0693 106.847 46.6133 106.463 54.976C106.122 63.3387 105.951 72.256 105.951 81.728C105.951 83.008 106.122 83.9253 106.463 84.48C106.805 85.0347 107.381 85.312 108.191 85.312C108.661 85.312 109.109 85.2907 109.535 85.248C109.962 85.2053 110.261 85.184 110.431 85.184L110.559 85.44L110.047 88.192C109.663 88.1493 108.938 88.1067 107.871 88.064C106.805 88.0213 105.631 88 104.351 88C103.242 88 101.962 88.1067 100.511 88.32C99.1033 88.5333 98.1859 88.6827 97.7593 88.768L98.0153 86.144Z" fill="#FAD30A"/>
<path d="M87.6905 125.24C87.6905 116.088 82.9225 109.016 73.3865 104.024C63.7865 99.032 50.2505 96.536 32.7785 96.536C22.8585 96.536 15.5945 98.04 10.9865 101.048C6.37849 104.056 4.07449 108.152 4.07449 113.336C4.07449 117.688 5.5785 121.592 8.5865 125.048C11.5305 128.504 15.6905 131.064 21.0665 132.728C9.2905 134.072 3.4025 138.2 3.4025 145.112C3.4025 148.696 4.6825 151.704 7.2425 154.136C9.7385 156.504 13.0665 158.2 17.2265 159.224C24.2665 160.952 31.4985 161.816 38.9225 161.816V159.896C37.4505 160.024 36.0425 160.088 34.6985 160.088C28.2985 160.088 23.4665 158.968 20.2025 156.728C16.2345 153.976 14.2505 150.36 14.2505 145.88C14.2505 143.32 15.0505 141.048 16.6505 139.064C18.1865 137.016 19.7225 135.608 21.2585 134.84L23.6585 133.688C25.7065 134.136 28.0105 134.36 30.5705 134.36V132.44C24.4265 132.44 18.8265 130.68 13.7705 127.16C8.71449 123.64 6.18649 119.032 6.18649 113.336C6.18649 108.6 8.42649 104.952 12.9065 102.392C17.3225 99.768 23.6585 98.424 31.9145 98.36C35.4345 122.168 38.1225 138.552 39.9785 147.512C41.2585 154.424 44.4585 159.832 49.5785 163.736C54.6985 167.704 60.1705 169.688 65.9945 169.688V167.864C63.4985 167.672 61.6745 167.384 60.5225 167C59.3065 166.68 58.2825 165.944 57.4505 164.792C56.6185 163.704 56.0105 162.392 55.6265 160.856C54.9225 157.72 54.3785 154.744 53.9945 151.928L44.7785 98.84C57.8985 99.928 68.0425 102.776 75.2105 107.384C82.3145 111.928 85.8665 117.88 85.8665 125.24C85.8665 128.568 84.7145 131.384 82.4105 133.688C80.8105 135.224 78.6985 136.408 76.0745 137.24C73.4505 138.008 71.3065 138.456 69.6425 138.584C67.9145 138.648 66.9865 138.616 66.8585 138.488V140.504C74.4105 140.504 80.0105 138.712 83.6585 135.128C86.3465 132.632 87.6905 129.336 87.6905 125.24Z" fill="#FAD30A"/>
<path d="M60.3438 140.531C60.3438 152.594 65.7917 158.625 76.6875 158.625C87.3542 158.625 92.6875 152.594 92.6875 140.531C92.6875 128.635 87.3542 122.688 76.6875 122.688C65.7917 122.688 60.3438 128.635 60.3438 140.531ZM54.25 140.719C54.25 125.573 61.7292 118 76.6875 118C91.4167 118 98.7812 125.573 98.7812 140.719C98.7812 155.781 91.4167 163.312 76.6875 163.312C61.7292 163.312 54.25 155.781 54.25 140.719ZM107.875 163V118.312H113.656L141 154.312V118.312H146.469V163H140.688L113.344 126.688V163H107.875ZM157.125 163V118.312H162.906L190.25 154.312V118.312H195.719V163H189.938L162.594 126.688V163H157.125ZM235.594 118.312V123H212.156V138H234.5V142.688H212.156V158.312H236.062V163H206.375V118.312H235.594Z" fill="#00BBF6"/>
</svg>
