<svg width="101" height="143" viewBox="0 0 101 143" fill="none" xmlns="http://www.w3.org/2000/svg">
<line x1="71.5419" y1="106.2" x2="50.5419" y2="58.2004" stroke="#13EFEF"/>
<line x1="33.2177" y1="113.75" x2="50.8268" y2="59.1024" stroke="#13EFEF"/>
<line x1="38" y1="97.5" x2="74" y2="97.5" stroke="#FF00C7"/>
<path d="M50.6818 125.455C44.7424 125.455 39.5152 123.894 35 120.773C30.4848 117.621 26.9545 113.318 24.4091 107.864C21.8939 102.409 20.6364 96.2273 20.6364 89.3182C20.6364 82.4091 21.9091 76.2273 24.4545 70.7727C27 65.3182 30.5303 61.0151 35.0455 57.8636C39.5606 54.7121 44.7576 53.1364 50.6364 53.1364C55.0606 53.1364 59.0909 54.0455 62.7273 55.8636C66.3939 57.6818 69.4242 60.2121 71.8182 63.4545C74.2424 66.697 75.7879 70.4545 76.4545 74.7273H70.8182C69.9091 70 67.6364 66.0909 64 63C60.3939 59.8788 55.9545 58.3182 50.6818 58.3182C45.9545 58.3182 41.7424 59.6515 38.0455 62.3182C34.3485 64.9545 31.4394 68.6061 29.3182 73.2727C27.197 77.9091 26.1364 83.2273 26.1364 89.2273C26.1364 95.1364 27.1667 100.439 29.2273 105.136C31.2879 109.803 34.1667 113.5 37.8636 116.227C41.5606 118.955 45.8333 120.318 50.6818 120.318C54.1061 120.318 57.2273 119.636 60.0455 118.273C62.8939 116.909 65.2727 114.97 67.1818 112.455C69.0909 109.939 70.3485 107 70.9545 103.636H76.5909C75.9242 107.939 74.4091 111.727 72.0455 115C69.6818 118.273 66.6667 120.833 63 122.682C59.3333 124.53 55.2273 125.455 50.6818 125.455Z" fill="black"/>
<path d="M74 92L74.6735 95.1094H76.8532L75.0898 97.0312L75.7634 100.141L74 98.2188L72.2366 100.141L72.9102 97.0312L71.1468 95.1094H73.3265L74 92Z" fill="#033BFF"/>
<path d="M100.5 89C100.5 112.4 78.1926 131.5 50.5 131.5C22.8074 131.5 0.5 112.4 0.5 89C0.5 65.6003 22.8074 46.5 50.5 46.5C78.1926 46.5 100.5 65.6003 100.5 89Z" stroke="#5256B0"/>
</svg>
