<svg width="308" height="232" viewBox="0 0 308 232" fill="none" xmlns="http://www.w3.org/2000/svg">
<path d="M60.1562 62.2969C66.3438 62.2969 71.9375 63.2969 76.9375 65.2969C81.9688 67.2656 86.2656 70.0156 89.8281 73.5469C93.3906 77.0781 96.1406 81.2812 98.0781 86.1562C100.016 91.0312 100.984 96.3594 100.984 102.141C100.984 105.859 100.625 109.453 99.9062 112.922C99.1875 116.391 98.1562 119.656 96.8125 122.719C95.4688 125.781 93.8125 128.578 91.8438 131.109C89.9062 133.641 87.7031 135.828 85.2344 137.672C82.7969 139.484 80.1094 140.891 77.1719 141.891C74.2656 142.891 71.1562 143.391 67.8438 143.391C64.4688 143.391 61.0625 143.078 57.625 142.453C54.1875 141.828 50.7812 141.156 47.4062 140.438C46.25 141.094 45.0625 141.656 43.8438 142.125C42.625 142.625 41.4062 143.031 40.1875 143.344C38.9688 143.688 37.7656 143.938 36.5781 144.094C35.4219 144.281 34.3281 144.375 33.2969 144.375C30.1719 144.375 27.7969 144.016 26.1719 143.297C24.5156 142.578 23.6875 141.5 23.6875 140.062C23.6875 139.219 23.9219 138.469 24.3906 137.812C24.8281 137.156 25.5781 136.609 26.6406 136.172C27.7031 135.703 29.0938 135.359 30.8125 135.141C32.5 134.891 34.6094 134.766 37.1406 134.766C39.1094 134.766 41.0469 134.875 42.9531 135.094C44.8594 135.281 46.75 135.516 48.625 135.797L49.8906 134.484C50.5469 133.703 51.0469 132.719 51.3906 131.531C51.7344 130.312 51.9844 128.75 52.1406 126.844C52.2969 124.938 52.3906 122.609 52.4219 119.859C52.4531 117.078 52.4688 113.719 52.4688 109.781C52.4688 105.969 52.4844 102.719 52.5156 100.031C52.5781 97.3125 52.7031 94.9844 52.8906 93.0469C53.0781 91.1094 53.3594 89.4688 53.7344 88.125C54.1094 86.75 54.6094 85.5 55.2344 84.375C55.8906 83.2188 56.7031 82.0938 57.6719 81C58.6406 79.875 59.7969 78.5938 61.1406 77.1562L63.5312 79.2656C62.8438 79.9219 62.2969 80.7344 61.8906 81.7031C61.5156 82.6406 61.2344 83.7656 61.0469 85.0781C60.8594 86.3594 60.7344 87.8281 60.6719 89.4844C60.6406 91.1094 60.625 92.9531 60.625 95.0156V121.406C60.625 123.438 60.4062 125.219 59.9688 126.75C59.5312 128.25 58.9375 129.594 58.1875 130.781C57.4688 131.969 56.6406 133.031 55.7031 133.969C54.7656 134.906 53.7969 135.781 52.7969 136.594C54.6406 136.969 56.4375 137.344 58.1875 137.719C59.9375 138.094 61.625 138.438 63.25 138.75C64.9062 139.062 66.4844 139.328 67.9844 139.547C69.5156 139.734 70.9688 139.828 72.3438 139.828C74.9062 139.828 77.1875 139.266 79.1875 138.141C81.1875 137.016 82.9219 135.484 84.3906 133.547C85.8594 131.578 87.0938 129.281 88.0938 126.656C89.125 124 89.9531 121.156 90.5781 118.125C91.2031 115.094 91.6406 111.922 91.8906 108.609C92.1719 105.297 92.3125 102.016 92.3125 98.7656C92.3125 93.6094 91.6562 88.9844 90.3438 84.8906C89.0312 80.7969 87.0781 77.3281 84.4844 74.4844C81.9219 71.6094 78.7188 69.4219 74.875 67.9219C71.0625 66.3906 66.6406 65.625 61.6094 65.625C57.9844 65.625 54.8281 65.9219 52.1406 66.5156C49.4531 67.0781 47.1406 67.8438 45.2031 68.8125C43.2969 69.75 41.7344 70.8281 40.5156 72.0469C39.2969 73.2656 38.3281 74.5312 37.6094 75.8438C36.9219 77.125 36.4375 78.4062 36.1562 79.6875C35.9062 80.9688 35.7812 82.1406 35.7812 83.2031C35.7812 84.4531 35.875 85.6875 36.0625 86.9062C36.2812 88.0938 36.6875 89.1562 37.2812 90.0938C37.9062 91.0312 38.7812 91.7812 39.9062 92.3438C41.0312 92.9062 42.5312 93.1875 44.4062 93.1875C45.0312 93.1875 45.5469 93.1562 45.9531 93.0938C46.3594 93 46.7031 92.8906 46.9844 92.7656C47.2969 92.6406 47.5625 92.5 47.7812 92.3438L48.3438 95.1094C47.875 95.4531 47.0781 95.75 45.9531 96C44.8594 96.25 43.6719 96.375 42.3906 96.375C40.5156 96.375 38.7656 96.0469 37.1406 95.3906C35.5469 94.7344 34.1562 93.8438 32.9688 92.7188C31.7812 91.5625 30.8594 90.2344 30.2031 88.7344C29.5156 87.2344 29.1719 85.6406 29.1719 83.9531C29.1719 81.0469 29.9375 78.2969 31.4688 75.7031C33 73.0781 35.1406 70.7812 37.8906 68.8125C40.6406 66.8125 43.9062 65.2344 47.6875 64.0781C51.5 62.8906 55.6562 62.2969 60.1562 62.2969ZM31.375 138.141C30.875 138.141 30.3438 138.156 29.7812 138.188C29.2188 138.219 28.7031 138.297 28.2344 138.422C27.7344 138.547 27.3281 138.734 27.0156 138.984C26.7031 139.234 26.5469 139.594 26.5469 140.062C26.5469 140.688 27.0625 141.156 28.0938 141.469C29.125 141.781 30.8594 141.938 33.2969 141.938C35.1719 141.938 36.9531 141.734 38.6406 141.328C40.3594 140.922 41.9688 140.328 43.4688 139.547C41.4062 139.172 39.3594 138.844 37.3281 138.562C35.2969 138.281 33.3125 138.141 31.375 138.141Z" fill="#9105FF"/>
<path d="M124.056 71.448L135.432 71.736C136.488 71.736 137.4 71.736 138.168 71.736L153.144 71.448C153.816 71.448 154.152 72.168 154.152 73.608C154.152 74.952 153.768 75.624 153 75.624H146.376C145.128 75.624 144.504 76.392 144.504 77.928V125.592C144.504 132.792 145.464 136.392 147.384 136.392H151.128C161.688 136.2 168.984 134.712 173.016 131.928L173.736 126.312C173.928 125.736 174.408 125.448 175.176 125.448C176.04 125.448 176.616 125.448 176.904 125.448C177.48 125.64 177.768 125.928 177.768 126.312C177.192 130.344 176.904 136.008 176.904 143.304C176.904 143.784 176.232 144.024 174.888 144.024C173.64 144.024 173.016 143.784 173.016 143.304V141H148.248L123.768 141.288C123.096 141.288 122.76 140.568 122.76 139.128C122.76 137.688 123.048 136.968 123.624 136.968H130.104C131.16 136.968 131.784 136.776 131.976 136.392C132.168 135.912 132.264 134.712 132.264 132.792V87.432C132.264 79.752 131.304 75.912 129.384 75.912H124.2C123.048 75.912 122.472 75.192 122.472 73.752C122.472 72.216 123 71.448 124.056 71.448Z" fill="#913AF3"/>
<path d="M17.592 214.584C15.352 212.92 13.656 211.064 12.504 209.016C11.288 206.904 10.68 204.792 10.68 202.68C10.68 200.632 11.288 198.68 12.504 196.824C13.72 194.904 15.544 193.208 17.976 191.736C22.904 188.792 28.312 187.32 34.2 187.32C39.192 187.32 43.896 188.376 48.312 190.488C49.848 197.848 52.024 208.952 54.84 223.8V223.992C46.648 223.672 39.576 222.904 33.624 221.688C27.608 220.472 22.264 218.104 17.592 214.584ZM26.424 163.32C27.192 159.16 29.72 157.08 34.008 157.08C36.056 157.08 38.424 157.56 41.112 158.52C42.328 163.512 44.024 171 46.2 180.984C41.272 179.768 36.728 177.72 32.568 174.84C28.344 171.96 26.232 168.664 26.232 164.952C26.232 164.632 26.296 164.088 26.424 163.32ZM13.848 184.152C9.816 185.944 6.64799 188.28 4.34399 191.16C1.97599 194.04 0.791994 197.208 0.791994 200.664C0.791994 203.992 1.88 207.256 4.056 210.456C9.176 218.072 16.824 223.416 27 226.488C37.112 229.56 48.152 231.096 60.12 231.096C63.32 231.096 66.36 231 69.24 230.808C70.712 230.744 71.448 230.296 71.448 229.464C71.448 228.568 70.68 227.512 69.144 226.296C67.544 225.08 66.2 224.408 65.112 224.28C61.4 204.44 57.112 184.344 52.248 163.992C53.016 164.184 53.848 164.28 54.744 164.28C55.768 164.28 56.632 164.152 57.336 163.896C57.976 163.64 58.296 163.224 58.296 162.648C58.296 161.944 57.72 161.08 56.568 160.056C55.032 158.712 52.888 157.272 50.136 155.736C50.136 155.544 50.072 155.256 49.944 154.872C49.624 153.72 48.664 152.728 47.064 151.896C45.4 151.064 43.8 150.648 42.264 150.648C41.048 150.648 40.28 150.904 39.96 151.416C36.44 150.456 33.336 149.976 30.648 149.976C23.672 149.976 19.16 152.792 17.112 158.424C16.536 159.96 16.248 161.464 16.248 162.936C16.248 166.2 17.464 169.336 19.896 172.344C22.264 175.352 25.432 178.104 29.4 180.6C23.832 180.792 18.648 181.976 13.848 184.152Z" fill="#9105FF"/>
<path d="M86.744 220.768C79.896 220.768 75 220.096 72.056 218.752C69.112 217.344 67.224 215.008 66.392 211.744C65.624 208.416 65.24 203.008 65.24 195.52C65.24 188.032 65.624 182.656 66.392 179.392C67.224 176.064 69.112 173.728 72.056 172.384C75 170.976 79.896 170.272 86.744 170.272C93.528 170.272 98.392 170.976 101.336 172.384C104.28 173.728 106.136 176.064 106.904 179.392C107.736 182.656 108.152 188.032 108.152 195.52C108.152 203.008 107.736 208.416 106.904 211.744C106.136 215.008 104.28 217.344 101.336 218.752C98.392 220.096 93.528 220.768 86.744 220.768ZM86.744 213.664C91.416 213.664 94.648 213.248 96.44 212.416C98.232 211.584 99.32 210.08 99.704 207.904C100.152 205.664 100.376 201.536 100.376 195.52C100.376 189.504 100.152 185.408 99.704 183.232C99.32 180.992 98.232 179.456 96.44 178.624C94.648 177.792 91.416 177.376 86.744 177.376C82.072 177.376 78.808 177.792 76.952 178.624C75.16 179.456 74.04 180.992 73.592 183.232C73.208 185.408 73.016 189.504 73.016 195.52C73.016 201.536 73.208 205.664 73.592 207.904C74.04 210.08 75.16 211.584 76.952 212.416C78.808 213.248 82.072 213.664 86.744 213.664ZM155.878 192.448C155.878 187.904 155.59 184.672 155.014 182.752C154.438 180.768 153.35 179.456 151.75 178.816C150.15 178.176 147.462 177.856 143.686 177.856C139.654 177.856 136.678 178.496 134.758 179.776C132.902 181.056 131.718 182.816 131.206 185.056C130.758 187.296 130.534 190.528 130.534 194.752V220H122.758V171.04H129.67L130.054 177.952H130.63C131.718 175.456 133.51 173.568 136.006 172.288C138.502 170.944 142.118 170.272 146.854 170.272C151.59 170.272 155.142 170.944 157.51 172.288C159.942 173.632 161.574 175.648 162.406 178.336C163.238 180.96 163.654 184.64 163.654 189.376V220H155.878V192.448ZM213.347 192.448C213.347 187.904 213.059 184.672 212.483 182.752C211.907 180.768 210.819 179.456 209.219 178.816C207.619 178.176 204.931 177.856 201.155 177.856C197.123 177.856 194.147 178.496 192.227 179.776C190.371 181.056 189.187 182.816 188.675 185.056C188.227 187.296 188.003 190.528 188.003 194.752V220H180.227V171.04H187.139L187.523 177.952H188.099C189.187 175.456 190.979 173.568 193.475 172.288C195.971 170.944 199.587 170.272 204.323 170.272C209.059 170.272 212.611 170.944 214.979 172.288C217.411 173.632 219.043 175.648 219.875 178.336C220.707 180.96 221.123 184.64 221.123 189.376V220H213.347V192.448Z" fill="#913AF3" fill-opacity="0.65"/>
<path d="M97.752 143.152C93.848 143.152 90.424 142.288 87.48 140.56C84.6 138.768 82.36 136.304 80.76 133.168C79.16 130.032 78.36 126.416 78.36 122.32C78.36 117.648 79.32 113.456 81.24 109.744C83.224 106.032 85.848 103.088 89.112 100.912C92.376 98.736 95.928 97.648 99.768 97.648C103.096 97.648 105.976 98.416 108.408 99.952C110.904 101.424 112.856 103.504 114.264 106.192C115.672 108.88 116.376 111.984 116.376 115.504C116.376 116.72 116.152 117.552 115.704 118C115.256 118.384 114.744 118.576 114.168 118.576H86.712C86.712 118.896 86.712 119.248 86.712 119.632C86.712 125.392 87.96 130.032 90.456 133.552C93.016 137.008 96.6 138.736 101.208 138.736C103.768 138.736 106.232 138.096 108.6 136.816C110.968 135.472 113.08 133.616 114.936 131.248L116.184 133.648C114.136 136.592 111.448 138.928 108.12 140.656C104.792 142.32 101.336 143.152 97.752 143.152ZM98.712 100.912C95.576 100.912 92.952 102.192 90.84 104.752C88.728 107.248 87.416 110.832 86.904 115.504L108.984 114.928C108.92 110.64 107.928 107.248 106.008 104.752C104.152 102.192 101.72 100.912 98.712 100.912Z" fill="black"/>
<path d="M272.264 214.672C272.264 218 272.488 221.776 272.936 226C268.776 225.808 261.768 225.712 251.912 225.712C240.072 225.712 231.112 225.808 225.032 226V224.08C227.336 223.952 229 223.696 230.024 223.312C231.112 222.928 231.848 222.192 232.232 221.104C232.616 220.016 232.808 218.256 232.808 215.824V177.808C232.808 175.376 232.616 173.616 232.232 172.528C231.848 171.44 231.112 170.704 230.024 170.32C229 169.936 227.336 169.68 225.032 169.552V167.632C231.112 167.824 240.072 167.92 251.912 167.92C260.872 167.92 267.24 167.824 271.016 167.632C270.568 171.472 270.344 174.928 270.344 178C270.344 180.496 270.44 182.48 270.632 183.952H268.424C267.976 178.704 266.856 175.056 265.064 173.008C263.336 170.896 260.488 169.84 256.52 169.84H249.512C247.208 169.84 245.512 170.032 244.424 170.416C243.4 170.736 242.696 171.44 242.312 172.528C241.928 173.616 241.736 175.376 241.736 177.808V195.664H249.704C251.752 195.664 253.32 195.152 254.408 194.128C255.496 193.04 256.232 191.888 256.616 190.672C257 189.392 257.352 187.792 257.672 185.872H259.88C259.688 188.048 259.592 190.416 259.592 192.976V196.624C259.592 199.12 259.784 202.704 260.168 207.376H257.96C257.576 204.304 256.84 201.904 255.752 200.176C254.664 198.448 252.648 197.584 249.704 197.584H241.736V215.824C241.736 218.256 241.928 220.016 242.312 221.104C242.696 222.192 243.4 222.928 244.424 223.312C245.512 223.632 247.208 223.792 249.512 223.792H256.52C259.72 223.792 262.248 223.28 264.104 222.256C265.96 221.232 267.368 219.6 268.328 217.36C269.288 215.056 269.96 211.856 270.344 207.76H272.552C272.36 209.488 272.264 211.792 272.264 214.672Z" fill="#913AF3" fill-opacity="0.65"/>
<path d="M221 235.6H278.12V237.52H221V235.6Z" fill="#913AF3" fill-opacity="0.65"/>
</svg>
